<svg width="512" height="512" xmlns="http://www.w3.org/2000/svg">
 <g>
  <title>Layer 1</title>
  <g stroke="null" id="svg_4">
   <path stroke="null" fill="#99F6E4" id="svg_1" clip-rule="evenodd" d="m249.40881,24.41669a14.02382,13.71784 0 0 1 13.18238,0l210.35719,109.74277a14.02382,13.71784 0 0 1 0,24.19829l-210.35719,109.74277a14.02382,13.71784 0 0 1 -13.18238,0l-210.35719,-109.74277a14.02382,13.71784 0 0 1 0,-24.19829l210.35719,-109.74277z" fill-rule="evenodd"/>
   <path stroke="null" fill="#34D399" id="svg_2" clip-rule="evenodd" d="m91.2202,216.68603l-52.16858,27.21621a14.02382,13.71784 0 0 0 0,24.19829l210.35719,109.74277a14.02382,13.71784 0 0 0 13.18238,0l210.35719,-109.74277a14.02382,13.71784 0 0 0 0,-24.19829l-52.16858,-27.21621l-145.00622,75.61277a42.07144,41.15354 0 0 1 -39.54715,0l11.72391,-21.53702l-11.75195,21.53702l-144.97818,-75.61277z" fill-rule="evenodd"/>
   <path stroke="null" fill="#059669" id="svg_3" clip-rule="evenodd" d="m91.2202,326.42607l-52.16858,27.21621a14.02382,13.71784 0 0 0 0,24.19829l210.35719,109.74277a14.02382,13.71784 0 0 0 13.18238,0l210.35719,-109.74277a14.02382,13.71784 0 0 0 0,-24.19829l-52.16858,-27.21621l-145.00622,75.61277a42.07144,41.15354 0 0 1 -39.54715,0l11.72391,-21.53702l-11.75195,21.53702l-144.97818,-75.61277z" fill-rule="evenodd"/>
  </g>
 </g>

</svg>