<?xml version="1.0" standalone="no"?>
<!DOCTYPE svg PUBLIC "-//W3C//DTD SVG 20010904//EN"
 "http://www.w3.org/TR/2001/REC-SVG-20010904/DTD/svg10.dtd">
<svg version="1.0" xmlns="http://www.w3.org/2000/svg"
 width="700.000000pt" height="700.000000pt" viewBox="0 0 700.000000 700.000000"
 preserveAspectRatio="xMidYMid meet">
<metadata>
Created by potrace 1.14, written by Peter Selinger 2001-2017
</metadata>
<g transform="translate(0.000000,700.000000) scale(0.100000,-0.100000)"
fill="#000000" stroke="none">
<path d="M3286 6601 c-94 -48 -220 -114 -281 -146 -60 -32 -162 -85 -225 -118
-63 -33 -151 -79 -195 -102 -44 -23 -161 -84 -260 -135 -99 -51 -207 -107
-240 -125 -33 -18 -127 -67 -210 -110 -82 -43 -197 -102 -255 -133 -157 -82
-309 -161 -465 -242 -77 -40 -171 -90 -210 -110 -38 -21 -146 -77 -240 -125
-93 -48 -184 -98 -201 -111 -89 -66 -89 -220 -1 -287 18 -13 113 -65 212 -117
174 -90 271 -140 488 -254 56 -29 156 -82 222 -116 66 -34 170 -88 230 -120
61 -31 169 -88 240 -125 72 -37 175 -91 230 -120 55 -29 163 -85 240 -125 77
-40 176 -92 220 -115 44 -23 161 -84 260 -136 99 -51 225 -117 280 -146 271
-144 326 -168 379 -167 53 0 64 5 451 209 122 64 288 150 470 245 66 34 170
88 230 120 61 32 173 90 250 130 77 40 181 94 230 120 102 53 218 114 555 290
129 67 280 146 335 175 55 29 163 85 240 125 208 108 238 126 261 157 48 64
52 145 12 210 -25 43 -46 56 -213 143 -77 40 -189 98 -250 130 -60 32 -164 86
-230 120 -66 34 -165 86 -220 115 -55 29 -163 85 -240 125 -77 40 -180 94
-230 120 -49 26 -148 78 -220 115 -71 37 -179 93 -240 125 -60 32 -168 88
-240 125 -283 147 -362 189 -420 220 -33 18 -154 81 -269 140 -277 142 -255
141 -480 26z"/>
<path d="M1200 4013 c-25 -13 -193 -101 -375 -196 -293 -153 -332 -176 -356
-212 -53 -79 -45 -169 19 -231 20 -20 100 -68 177 -108 172 -88 436 -226 530
-276 39 -21 138 -72 220 -115 83 -43 182 -94 220 -115 39 -21 138 -72 220
-115 83 -43 191 -99 240 -125 50 -26 162 -84 250 -130 88 -45 201 -104 250
-130 104 -55 269 -141 440 -230 66 -35 185 -97 265 -138 129 -68 151 -76 200
-76 58 0 42 -8 505 234 343 179 663 347 930 485 72 37 171 89 220 115 50 26
158 82 240 125 83 43 188 98 235 123 47 25 130 68 185 97 55 29 159 83 230
120 72 37 195 101 275 143 80 41 159 85 176 98 90 66 90 222 0 288 -29 22 -78
48 -461 247 -88 45 -187 97 -220 115 l-60 33 -135 -71 c-178 -93 -313 -164
-490 -255 -80 -42 -185 -97 -235 -123 -49 -26 -162 -85 -250 -130 -88 -46
-203 -106 -255 -133 -175 -94 -413 -217 -565 -292 -120 -60 -166 -78 -229 -88
-87 -14 -198 -7 -276 19 -40 14 -250 119 -525 264 -49 26 -142 75 -205 107
-63 33 -162 85 -220 115 -58 30 -172 90 -255 133 -230 119 -374 194 -440 230
-33 18 -143 75 -245 127 l-185 95 -45 -24z"/>
<path d="M1205 2515 c-22 -12 -116 -61 -210 -109 -471 -245 -500 -261 -523
-294 -57 -79 -49 -175 18 -241 20 -20 86 -61 146 -91 60 -30 160 -82 224 -116
63 -33 196 -102 295 -154 99 -51 216 -112 260 -135 105 -56 253 -133 450 -235
88 -45 196 -102 240 -125 44 -23 143 -75 220 -115 77 -40 185 -96 240 -125 55
-29 168 -87 250 -130 83 -43 173 -90 200 -105 28 -15 136 -72 240 -126 173
-89 195 -98 245 -98 61 0 20 -19 725 349 55 29 163 85 240 125 77 40 185 96
240 125 55 29 152 79 215 112 269 141 350 183 430 225 47 25 157 82 245 128
88 45 205 106 260 135 116 61 284 148 475 248 74 38 149 80 166 93 66 48 87
152 48 229 -25 48 -57 70 -234 162 -74 39 -211 110 -305 159 -93 48 -188 98
-209 110 l-40 23 -155 -81 c-86 -44 -187 -97 -226 -118 -38 -20 -137 -72 -220
-115 -82 -43 -199 -104 -260 -135 -159 -83 -302 -158 -450 -235 -71 -37 -170
-89 -220 -115 -560 -295 -579 -303 -733 -301 -137 2 -174 17 -687 286 -100 52
-299 156 -475 248 -335 174 -556 289 -675 352 -44 23 -154 80 -245 127 l-165
85 -40 -22z"/>
</g>
</svg>
