<svg viewBox="0 0 18 18">
  <path fill="#99F6E4" id="svg_1" clip-rule="evenodd" d="m8.765,0.55905a0.5,0.5 0 0 1 0.47,0l7.5,4a0.5,0.5 0 0 1 0,0.882l-7.5,4a0.5,0.5 0 0 1 -0.47,0l-7.5,-4a0.5,0.5 0 0 1 0,-0.882l7.5,-4z" fill-rule="evenodd"></path>
  <path fill="#34D399" id="svg_2" clip-rule="evenodd" d="m3.125,7.56705l-1.86,0.992a0.5,0.5 0 0 0 0,0.882l7.5,4a0.5,0.5 0 0 0 0.47,0l7.5,-4a0.5,0.5 0 0 0 0,-0.882l-1.86,-0.992l-5.17,2.756a1.5,1.5 0 0 1 -1.41,0l0.418,-0.785l-0.419,0.785l-5.169,-2.756z" fill-rule="evenodd"></path>
  <path fill="#059669" id="svg_3" clip-rule="evenodd" d="m3.125,11.56695l-1.86,0.992a0.5,0.5 0 0 0 0,0.882l7.5,4a0.5,0.5 0 0 0 0.47,0l7.5,-4a0.5,0.5 0 0 0 0,-0.882l-1.86,-0.992l-5.17,2.756a1.5,1.5 0 0 1 -1.41,0l0.418,-0.785l-0.419,0.785l-5.169,-2.756z" fill-rule="evenodd"></path>
</svg>